<svg id="Layer_1" data-name="Layer 1" xmlns="http://www.w3.org/2000/svg" xmlns:xlink="http://www.w3.org/1999/xlink" viewBox="0 0 305 52"><defs><style>.cls-1{fill:url(#linear-gradient);}.cls-2{fill:#c5c7c9;}.cls-3{fill:#fff;}.cls-4{fill:#949699;}.cls-5{fill:url(#linear-gradient-2);}.cls-6{fill:#404041;}.cls-7{mix-blend-mode:screen;}.cls-8{fill:url(#linear-gradient-3);}</style><linearGradient id="linear-gradient" x1="97.24" y1="0.13" x2="97.24" y2="32.52" gradientUnits="userSpaceOnUse"><stop offset="0" stop-color="#fff"/><stop offset="1" stop-color="#dddfe0"/></linearGradient><linearGradient id="linear-gradient-2" x1="173.03" y1="7.19" x2="183.31" y2="26.2" gradientUnits="userSpaceOnUse"><stop offset="0" stop-color="#808184"/><stop offset="1" stop-color="#404041"/></linearGradient><linearGradient id="linear-gradient-3" x1="167.31" y1="0.26" x2="181.01" y2="20.95" gradientUnits="userSpaceOnUse"><stop offset="0" stop-color="#fffbd4"/><stop offset="1"/></linearGradient><symbol id="Search_Bar_2_-_Black" data-name="Search Bar 2 - Black" viewBox="0 0 194.48 33"><path class="cls-1" d="M16.5,32.75a16.25,16.25,0,1,1,0-32.5H178a16.25,16.25,0,1,1,0,32.5H16.5Z"/><path class="cls-2" d="M178,0.5a16,16,0,1,1,0,32H16.5a16,16,0,1,1,0-32H178m0-.5H16.5a16.5,16.5,0,1,0,0,33H178a16.5,16.5,0,1,0,0-33h0Z"/><path class="cls-3" d="M16.51,28.75a12.25,12.25,0,0,1,0-24.5H178a12.25,12.25,0,0,1,0,24.5H16.51Z"/><path class="cls-4" d="M178,4.5a12,12,0,0,1,0,24H16.51a12,12,0,1,1,0-24H178m0-.5H16.51a12.5,12.5,0,1,0,0,25H178a12.5,12.5,0,0,0,0-25h0Z"/><path class="cls-5" d="M178.08,28.16a11.63,11.63,0,1,1,11.63-11.63A11.64,11.64,0,0,1,178.08,28.16Z"/><path class="cls-6" d="M178.08,5.27a11.26,11.26,0,1,1-11.25,11.25A11.27,11.27,0,0,1,178.08,5.27m0-.75a12,12,0,1,0,12,12,12,12,0,0,0-12-12h0Z"/><g class="cls-7"><path class="cls-8" d="M183.58,13.88a24,24,0,0,1,5.43-.11,11.28,11.28,0,1,0-20,9.47C170.82,18.68,176.47,14.83,183.58,13.88Z"/></g><path class="cls-3" d="M185.25,21.68a0.45,0.45,0,0,0,0-.62l-3.73-3.39a0.44,0.44,0,0,0-.62,0l-1.33,1.47a0.45,0.45,0,0,0,0,.63l3.73,3.39a0.44,0.44,0,0,0,.62,0Z"/><path class="cls-3" d="M176.3,9.76a4.89,4.89,0,1,1-1.6.27,4.89,4.89,0,0,1,1.6-.27m0,1.33a3.58,3.58,0,0,0-1.17.2h0a3.56,3.56,0,1,0,1.17-.2h0Z"/></symbol></defs><title>search-bar</title><use width="194.48" height="33" transform="scale(1.57 1.58)" xlink:href="#Search_Bar_2_-_Black"/></svg>