<svg id="Layer_1" data-name="Layer 1" xmlns="http://www.w3.org/2000/svg" xmlns:xlink="http://www.w3.org/1999/xlink" viewBox="0 0 24.01 24"><defs><style>.cls-1{fill:url(#linear-gradient);}.cls-2{fill:#404041;}.cls-3{mix-blend-mode:screen;}.cls-4{fill:url(#linear-gradient-2);}.cls-5{fill:#fff;}</style><linearGradient id="linear-gradient" x1="6.95" y1="2.67" x2="17.23" y2="21.68" gradientUnits="userSpaceOnUse"><stop offset="0" stop-color="#808184"/><stop offset="1" stop-color="#404041"/></linearGradient><linearGradient id="linear-gradient-2" x1="1.23" y1="-4.26" x2="14.94" y2="16.43" gradientUnits="userSpaceOnUse"><stop offset="0" stop-color="#fffbd4"/><stop offset="1"/></linearGradient><symbol id="SearchBar" data-name="SearchBar" viewBox="0 0 24.01 24.01"><path class="cls-1" d="M12,23.64A11.63,11.63,0,1,1,23.63,12,11.64,11.64,0,0,1,12,23.64Z"/><path class="cls-2" d="M12,0.75A11.26,11.26,0,1,1,.75,12,11.27,11.27,0,0,1,12,.75M12,0A12,12,0,1,0,24,12,12,12,0,0,0,12,0h0Z"/><g class="cls-3"><path class="cls-4" d="M17.51,9.35a24,24,0,0,1,5.43-.11A11.28,11.28,0,1,0,3,18.72C4.74,14.16,10.4,10.3,17.51,9.35Z"/></g><path class="cls-5" d="M19.17,17.15a0.45,0.45,0,0,0,0-.62l-3.73-3.39a0.44,0.44,0,0,0-.62,0l-1.33,1.47a0.45,0.45,0,0,0,0,.63l3.73,3.39a0.44,0.44,0,0,0,.62,0Z"/><path class="cls-5" d="M10.22,5.24a4.89,4.89,0,1,1-1.6.27,4.89,4.89,0,0,1,1.6-.27m0,1.33a3.58,3.58,0,0,0-1.17.2h0a3.56,3.56,0,1,0,1.17-.2h0Z"/></symbol></defs><title>search-icon</title><use width="24.01" height="24.01" transform="translate(0)" xlink:href="#SearchBar"/></svg>